<svg width="139" height="44" viewBox="0 0 139 44" fill="none" xmlns="http://www.w3.org/2000/svg">
<path d="M42.6743 23.4229C42.6861 33.4674 34.1187 41.6011 23.5385 41.59C12.9584 41.5789 2.47316 29.8669 2.46143 19.8224C11.5102 16.8666 20.1414 16.8756 23.496 5.21564C34.0762 5.22673 42.6626 13.3784 42.6743 23.4229Z" fill="#D48031"/>
<g clip-path="url(#clip0)">
<path d="M23.3873 4.20568C23.4093 4.45652 23.4128 4.71173 23.3956 4.97045C23.2371 7.35181 21.4606 9.2674 19.146 9.82087C18.7504 9.9155 18.4318 10.1978 18.3303 10.5726C17.2734 14.4791 13.4137 17.2473 9.01286 16.9801C7.16449 16.8678 5.48283 16.2344 4.1131 15.2424C3.7874 15.0065 3.32258 15.1586 3.21788 15.5341C2.93043 16.565 2.74332 17.6372 2.66982 18.7421C2.06096 27.8955 9.39122 35.7909 19.0425 36.377C28.6936 36.9631 37.0111 30.0179 37.62 20.8645C38.1687 12.615 32.291 5.40918 24.0583 3.62104C23.6847 3.53982 23.3556 3.84348 23.3873 4.20568Z" fill="#FA5B5B"/>
<path d="M16.2645 27.0826C16.343 25.9017 15.3973 24.8831 14.1522 24.8074C12.907 24.7318 11.8339 25.6279 11.7554 26.8088C11.6768 27.9897 12.6226 29.0083 13.8677 29.0839C15.1129 29.1596 16.1859 28.2635 16.2645 27.0826Z" fill="#CD916E"/>
<path d="M27.0464 26.664C27.1053 25.7781 26.3958 25.014 25.4618 24.9572C24.5277 24.9005 23.7228 25.5727 23.6638 26.4586C23.6049 27.3444 24.3143 28.1086 25.2484 28.1653C26.1825 28.222 26.9874 27.5499 27.0464 26.664Z" fill="#CD916E"/>
<path d="M7.69678 12.1348L8.65696 12.3472C9.44611 12.5216 10.2546 12.142 10.5862 11.4413L11.2135 10.1159C11.6278 9.24046 11.1456 8.21729 10.1811 7.92548L8.17184 7.31749C6.91956 6.93857 5.71007 7.99682 6.00767 9.21116L6.42952 10.9323C6.57594 11.5292 7.0674 11.9956 7.69678 12.1348Z" fill="#F5B97D"/>
<path d="M14.1983 7.09585L14.4958 7.7622C14.729 8.28483 15.3512 8.54473 15.9147 8.35502L17.2272 7.91314C18.0219 7.64559 18.2376 6.67612 17.6249 6.12576L16.6231 5.22586C16.1534 4.80392 15.4072 4.84097 14.9875 5.30714L14.3792 5.9825C14.1014 6.29101 14.0314 6.72203 14.1983 7.09585Z" fill="#F5B97D"/>
<path d="M12.1565 3.75122C12.1957 3.16076 11.7229 2.65145 11.1003 2.61364C10.4777 2.57583 9.9412 3.02385 9.90193 3.61431C9.86265 4.20478 10.3355 4.71409 10.9581 4.7519C11.5807 4.7897 12.1172 4.34169 12.1565 3.75122Z" fill="#F5B97D"/>
<path d="M35.6393 18.7312C35.0305 27.8846 26.7131 34.8298 17.0618 34.2437C12.7744 33.9833 8.94742 32.2783 6.06859 29.6635C9.03421 33.4658 13.6786 36.0512 19.0424 36.3769C28.6935 36.963 37.011 30.0178 37.6199 20.8644C37.9585 15.7741 35.848 11.0832 32.2494 7.81519C34.6157 10.851 35.9099 14.6634 35.6393 18.7312Z" fill="#E3AA75"/>
<path d="M9.92102 9.79868C9.5068 10.6739 8.497 11.1481 7.51128 10.9302L6.36705 10.6771L6.42959 10.9322C6.57592 11.5292 7.06746 11.9957 7.69684 12.1349L8.65702 12.3472C9.44617 12.5217 10.2547 12.1421 10.5863 11.4413L11.2136 10.116C11.5462 9.41308 11.2945 8.62141 10.6857 8.18305L9.92102 9.79868Z" fill="#E3AA75"/>
<path d="M16.5767 6.72833L15.0901 7.22875C14.8109 7.32275 14.5208 7.31438 14.2586 7.23123L14.4956 7.76225C14.7289 8.28481 15.3511 8.54479 15.9146 8.35508L17.2271 7.91319C18.0218 7.64565 18.2375 6.67617 17.6248 6.12581L17.3758 5.90216C17.2724 6.26485 17.0005 6.58572 16.5767 6.72833Z" fill="#E3AA75"/>
<path d="M15.1423 25.8739C15.0638 27.055 13.9905 27.9511 12.7453 27.8755C12.4334 27.8566 12.1403 27.7784 11.8774 27.6534C12.1691 28.4411 12.9342 29.0277 13.8676 29.0843C15.1128 29.16 16.1861 28.2638 16.2646 27.0828C16.3235 26.1974 15.8068 25.4035 15.0199 25.0294C15.1173 25.2926 15.162 25.5782 15.1423 25.8739Z" fill="#B67F5F"/>
<path d="M26.2212 25.7751C26.1623 26.6609 25.3573 27.333 24.4234 27.2763C24.1848 27.2618 23.9617 27.2001 23.7615 27.1031C23.9834 27.6879 24.5532 28.1229 25.2486 28.1651C26.1826 28.2218 26.9875 27.5497 27.0464 26.6639C27.0903 26.0043 26.7074 25.4133 26.1238 25.1305C26.2 25.3311 26.2362 25.5488 26.2212 25.7751Z" fill="#B67F5F"/>
<path d="M29.9765 16.6426C30.0551 15.4617 29.1094 14.443 27.8642 14.3674C26.6191 14.2918 25.546 15.1878 25.4674 16.3688C25.3889 17.5497 26.3346 18.5683 27.5797 18.6439C28.8249 18.7195 29.898 17.8235 29.9765 16.6426Z" fill="#CD916E"/>
<path d="M28.8546 15.434C28.7761 16.6151 27.7028 17.5112 26.4575 17.4356C26.1457 17.4166 25.8526 17.3384 25.5897 17.2134C25.8814 18.0011 26.6465 18.5877 27.5798 18.6444C28.8251 18.72 29.8984 17.8238 29.9769 16.6428C30.0358 15.7575 29.519 14.9635 28.7322 14.5895C28.8296 14.8526 28.8743 15.1382 28.8546 15.434Z" fill="#B67F5F"/>
<path d="M18.4166 20.2577C18.4559 19.6672 17.983 19.1579 17.3604 19.1201C16.7379 19.0823 16.2013 19.5303 16.1621 20.1208C16.1228 20.7112 16.5956 21.2206 17.2182 21.2584C17.8408 21.2962 18.3773 20.8482 18.4166 20.2577Z" fill="#CD916E"/>
<path d="M11.2275 26.7769C11.1307 28.2319 12.3002 29.4914 13.8343 29.5846C15.3683 29.6777 16.6952 28.5697 16.792 27.1148C16.8888 25.6597 15.7194 24.4002 14.1853 24.307C12.6512 24.2139 11.3243 25.3219 11.2275 26.7769ZM15.7373 27.0507C15.6772 27.9541 14.8533 28.642 13.9009 28.5841C12.9484 28.5263 12.2224 27.7442 12.2824 26.8409C12.3425 25.9376 13.1664 25.2496 14.1188 25.3075C15.0713 25.3653 15.7973 26.1474 15.7373 27.0507Z" fill="black"/>
<path d="M27.5467 19.1446C29.0808 19.2378 30.4076 18.1298 30.5044 16.6749C30.6012 15.2199 29.4318 13.9603 27.8977 13.8672C26.3636 13.774 25.0367 14.882 24.9399 16.337C24.8431 17.7919 26.0125 19.0515 27.5467 19.1446ZM25.9947 16.4009C26.0548 15.4976 26.8786 14.8097 27.8311 14.8675C28.7835 14.9254 29.5096 15.7074 29.4495 16.6107C29.3894 17.5141 28.5656 18.202 27.6131 18.1441C26.6607 18.0863 25.9346 17.3043 25.9947 16.4009Z" fill="black"/>
<path d="M23.1367 26.4265C23.0595 27.5868 23.992 28.5911 25.2153 28.6654C26.4387 28.7397 27.4966 27.8562 27.5738 26.696C27.651 25.5358 26.7186 24.5314 25.4952 24.4571C24.2719 24.3828 23.2138 25.2663 23.1367 26.4265ZM26.519 26.6319C26.4785 27.2405 25.9236 27.7039 25.2819 27.665C24.6402 27.626 24.151 27.0992 24.1915 26.4906C24.232 25.882 24.787 25.4186 25.4287 25.4575C26.0704 25.4965 26.5595 26.0233 26.519 26.6319Z" fill="black"/>
<path d="M17.1863 21.7362C18.0988 21.7916 18.888 21.1326 18.9456 20.2672C19.0031 19.4018 18.3076 18.6527 17.3951 18.5972C16.4827 18.5418 15.6935 19.2009 15.6359 20.0662C15.5783 20.9316 16.2739 21.6808 17.1863 21.7362ZM16.6907 20.1303C16.7116 19.8165 16.9978 19.5776 17.3286 19.5977C17.6594 19.6178 17.9116 19.8894 17.8907 20.2032C17.8699 20.5169 17.5837 20.7559 17.2529 20.7358C16.9221 20.7157 16.6699 20.4441 16.6907 20.1303Z" fill="black"/>
<path d="M26.386 10.5195C26.391 10.4443 26.3782 10.367 26.3451 10.2928C26.2312 10.0378 25.9212 9.9184 25.6523 10.0262L24.4893 10.4923C24.2205 10.6 24.0948 10.8941 24.2088 11.1491C24.3226 11.4041 24.6327 11.5235 24.9015 11.4158L26.0645 10.9496C26.2552 10.8731 26.3738 10.703 26.386 10.5195Z" fill="black"/>
<path d="M22.6124 16.1952C22.6174 16.12 22.6046 16.0426 22.5715 15.9685L22.0789 14.865C21.9651 14.61 21.655 14.4906 21.3862 14.5983C21.1174 14.7061 20.9918 15 21.1057 15.2551L21.5983 16.3586C21.7121 16.6136 22.0222 16.733 22.291 16.6252C22.4816 16.5488 22.6002 16.3787 22.6124 16.1952Z" fill="black"/>
<path d="M20.2034 30.9919C20.394 30.9155 20.5126 30.7454 20.5248 30.5618C20.5298 30.4867 20.5169 30.4093 20.4839 30.3351C20.3701 30.0801 20.0599 29.9607 19.7912 30.0685L18.6282 30.5346C18.3594 30.6423 18.2337 30.9364 18.3477 31.1914C18.4615 31.4464 18.7716 31.5658 19.0404 31.4581L20.2034 30.9919Z" fill="black"/>
<path d="M29.6273 23.2876L30.1199 24.3911C30.2337 24.6461 30.5438 24.7655 30.8126 24.6577C31.0032 24.5813 31.1218 24.4112 31.134 24.2277C31.139 24.1525 31.1261 24.0751 31.0931 24.001L30.6005 22.8975C30.4867 22.6425 30.1765 22.5231 29.9078 22.6308C29.639 22.7385 29.5134 23.0326 29.6273 23.2876Z" fill="black"/>
<path d="M8.34346 21.4154L7.74412 21.9158C7.52515 22.0986 7.50408 22.4153 7.69706 22.6232C7.89004 22.831 8.22394 22.8513 8.44291 22.6685L9.04225 22.168C9.15177 22.0766 9.21176 21.9517 9.22028 21.8237C9.22879 21.6957 9.18583 21.5645 9.0893 21.4606C8.89639 21.2529 8.5625 21.2326 8.34346 21.4154Z" fill="black"/>
<path d="M20.5914 24.4798C20.7843 24.6877 21.1183 24.708 21.3372 24.5251L21.9365 24.0247C22.0459 23.9333 22.106 23.8084 22.1145 23.6804C22.123 23.5524 22.08 23.4213 21.9835 23.3174C21.7905 23.1095 21.4566 23.0892 21.2377 23.2721L20.6384 23.7725C20.4194 23.9552 20.3984 24.272 20.5914 24.4798Z" fill="black"/>
<path d="M33.2192 18.9522L33.7829 18.9865C34.0742 19.0042 34.3252 18.7945 34.3436 18.5183C34.362 18.242 34.1407 18.0037 33.8494 17.986L33.2857 17.9518C32.9945 17.9341 32.7434 18.1437 32.725 18.42C32.7067 18.6962 32.9279 18.9346 33.2192 18.9522Z" fill="black"/>
<path d="M12.5783 20.0622L12.0502 19.4933C11.8572 19.2855 11.5232 19.2652 11.3043 19.448C11.0854 19.6309 11.0643 19.9476 11.2573 20.1554L11.7854 20.7243C11.9784 20.9321 12.3124 20.9524 12.5313 20.7696C12.6407 20.6782 12.7008 20.5533 12.7093 20.4253C12.7178 20.2973 12.6748 20.1661 12.5783 20.0622Z" fill="black"/>
<path d="M11.0683 11.6469L11.6956 10.3215C11.8058 10.0887 11.8692 9.84134 11.8858 9.59163C11.9083 9.25422 11.8453 8.91262 11.6968 8.59764C11.4384 8.04952 10.9444 7.63045 10.3413 7.44798L8.33205 6.84C7.56052 6.60652 6.74484 6.77784 6.15003 7.29826C5.55515 7.81875 5.30954 8.57607 5.49292 9.32422L5.91477 11.0453C6.10525 11.8226 6.75777 12.4419 7.57718 12.623L8.53736 12.8354C9.56999 13.0636 10.6344 12.5638 11.0683 11.6469ZM8.7765 11.859L7.81631 11.6467C7.3865 11.5517 7.0442 11.2268 6.9443 10.8191L6.52245 9.09805C6.49574 8.98902 6.48642 8.87964 6.49354 8.77266C6.51203 8.49454 6.6418 8.23255 6.86716 8.03536C7.17911 7.76241 7.60696 7.67254 8.01166 7.79495L10.0209 8.40293C10.3419 8.5001 10.5945 8.71426 10.7319 9.006C10.8694 9.29774 10.8692 9.61883 10.7314 9.91026L10.1041 11.2356C9.87642 11.7166 9.31813 11.9788 8.7765 11.859Z" fill="black"/>
<path d="M14.009 7.95727C14.3509 8.72328 15.2658 9.10549 16.0918 8.82746L17.4043 8.38557C17.9521 8.20113 18.3508 7.76898 18.4709 7.2295C18.4879 7.15286 18.4989 7.07605 18.504 6.99955C18.5347 6.53761 18.3503 6.08759 17.988 5.76204L16.9862 4.86214C16.6528 4.56264 16.2167 4.4102 15.7583 4.43299C15.3 4.45578 14.8834 4.65053 14.5854 4.98146L13.9772 5.65683C13.5668 6.11245 13.465 6.73862 13.7116 7.29098L14.009 7.95727ZM14.6848 6.90075C14.6474 6.81698 14.6321 6.72853 14.6379 6.64183C14.6459 6.52137 14.6946 6.4044 14.7811 6.30833L15.3893 5.63296C15.4973 5.51296 15.6484 5.44231 15.8146 5.43412C15.9808 5.42593 16.1389 5.48114 16.2598 5.58973L17.2616 6.48963C17.417 6.62925 17.4808 6.82324 17.4366 7.02171C17.3925 7.22026 17.2515 7.37302 17.0499 7.44087L15.7374 7.88276C15.4379 7.98356 15.1061 7.84496 14.9822 7.56723L14.6848 6.90075C14.6848 6.90082 14.6848 6.90082 14.6848 6.90075Z" fill="black"/>
<path d="M12.6841 3.78314C12.7417 2.91769 12.0461 2.16857 11.1337 2.11316C10.2213 2.05775 9.4321 2.71678 9.37454 3.58216C9.31698 4.44754 10.0125 5.19672 10.925 5.25213C11.8374 5.30754 12.6266 4.64858 12.6841 3.78314ZM10.4294 3.64622C10.4503 3.33241 10.7364 3.09351 11.0672 3.1136C11.398 3.13369 11.6502 3.40535 11.6294 3.71909C11.6085 4.03282 11.3223 4.27179 10.9915 4.2517C10.6607 4.23161 10.4085 3.96002 10.4294 3.64622Z" fill="black"/>
<path d="M22.8605 4.24628C22.8806 4.47679 22.8831 4.70951 22.8679 4.93801C22.7274 7.05039 21.1796 8.81708 19.0161 9.33445C18.4246 9.47592 17.9657 9.90234 17.8182 10.4473C16.8056 14.1898 13.1164 16.7267 9.04594 16.4795C7.36509 16.3774 5.77 15.8118 4.43327 14.8437C4.14004 14.6314 3.75822 14.5717 3.41183 14.684C3.06479 14.7966 2.80122 15.0662 2.70673 15.4052C2.23819 17.0854 2.04208 18.8267 2.12405 20.5804C2.28791 24.0899 3.58762 27.4306 5.8829 30.2415C6.06166 30.4605 6.39366 30.5007 6.62431 30.3313C6.85495 30.1619 6.89707 29.8471 6.71824 29.6281C4.55752 26.982 3.33402 23.8384 3.18003 20.537C3.10285 18.8845 3.28749 17.2444 3.72867 15.6623C3.73191 15.6508 3.73755 15.6382 3.75487 15.6326C3.77125 15.6273 3.78265 15.6331 3.79248 15.6403C5.29587 16.729 7.08954 17.3652 8.97947 17.4799C13.5557 17.7578 17.7035 14.9053 18.842 10.6973C18.8932 10.508 19.0593 10.3582 19.2754 10.3065C21.8856 9.68235 23.7533 7.55063 23.9228 5.00207C23.9412 4.72508 23.9381 4.44324 23.9138 4.16432C23.9104 4.12709 23.9347 4.10968 23.9406 4.10924C27.0351 4.78131 29.8667 6.26865 32.1294 8.41045C32.3361 8.60608 32.6708 8.60591 32.8768 8.41003C32.9711 8.3204 33.0222 8.20524 33.03 8.08799C33.0392 7.94907 32.9878 7.80726 32.8758 7.70114C30.4722 5.42617 27.4639 3.8462 24.1757 3.13203C23.8413 3.05943 23.5006 3.14025 23.2406 3.35395C22.9729 3.57402 22.8309 3.90758 22.8605 4.24628Z" fill="black"/>
<path d="M33.579 9.97109C36.1045 13.0693 37.3522 16.9266 37.0924 20.8325C36.9426 23.0839 36.3168 25.2322 35.2321 27.2176C34.1842 29.1359 32.7606 30.8116 31.0008 32.1981C29.2439 33.5825 27.2501 34.6009 25.0747 35.2251C22.8125 35.8741 20.4585 36.0638 18.0782 35.7889C14.3678 35.3603 10.8486 33.7266 8.16861 31.1888C7.96197 30.9931 7.62736 30.9932 7.4213 31.189C7.21517 31.3847 7.21552 31.7022 7.42223 31.8978C10.2684 34.5932 14.0077 36.3285 17.9515 36.784C20.4784 37.0758 22.9782 36.8742 25.3816 36.1846C27.6928 35.5214 29.8108 34.4397 31.6766 32.9694C33.5456 31.4969 35.0575 29.717 36.1707 27.6794C37.3232 25.5697 37.9881 23.2876 38.1472 20.8965C38.4232 16.7473 37.0976 12.6496 34.4148 9.35836C34.2362 9.13926 33.9043 9.09881 33.6734 9.26801C33.4427 9.43714 33.4003 9.75199 33.579 9.97109Z" fill="black"/>
</g>
<path d="M136.449 21.8229C136.461 31.8674 127.894 40.0011 117.313 39.99C106.733 39.9789 96.2481 28.2669 96.2364 18.2224C105.285 15.2666 113.916 15.2756 117.271 3.61563C127.851 3.62672 136.438 11.7784 136.449 21.8229Z" fill="#FFC839"/>
<g clip-path="url(#clip1)">
<path d="M117.162 2.60567C117.184 2.85651 117.188 3.11173 117.17 3.37044C117.012 5.7518 115.235 7.66739 112.921 8.22086C112.525 8.3155 112.207 8.59776 112.105 8.97263C111.048 12.8791 107.189 15.6473 102.788 15.3801C100.939 15.2678 99.2577 14.6344 97.888 13.6424C97.5623 13.4065 97.0975 13.5586 96.9928 13.9341C96.7053 14.965 96.5182 16.0372 96.4447 17.1421C95.8359 26.2955 103.166 34.1909 112.817 34.777C122.469 35.3631 130.786 28.4179 131.395 19.2645C131.944 11.015 126.066 3.80917 117.833 2.02103C117.46 1.93982 117.131 2.24347 117.162 2.60567Z" fill="#FA5B5B"/>
<path d="M110.039 25.4826C110.118 24.3017 109.172 23.283 107.927 23.2074C106.682 23.1318 105.609 24.0278 105.53 25.2088C105.452 26.3897 106.398 27.4083 107.643 27.4839C108.888 27.5596 109.961 26.6635 110.039 25.4826Z" fill="#CD916E"/>
<path d="M120.821 25.064C120.88 24.1781 120.171 23.414 119.237 23.3572C118.303 23.3005 117.498 23.9727 117.439 24.8586C117.38 25.7444 118.089 26.5086 119.023 26.5653C119.957 26.622 120.762 25.9498 120.821 25.064Z" fill="#CD916E"/>
<path d="M101.472 10.5348L102.432 10.7472C103.221 10.9216 104.03 10.542 104.361 9.84129L104.988 8.5159C105.403 7.64045 104.921 6.61728 103.956 6.32547L101.947 5.71749C100.695 5.33856 99.485 6.39682 99.7826 7.61115L100.204 9.33225C100.351 9.92916 100.842 10.3956 101.472 10.5348Z" fill="#F5B97D"/>
<path d="M107.973 5.49584L108.271 6.16219C108.504 6.68482 109.126 6.94473 109.69 6.75502L111.002 6.31314C111.797 6.04559 112.012 5.07611 111.4 4.52576L110.398 3.62585C109.928 3.20391 109.182 3.24097 108.762 3.70713L108.154 4.3825C107.876 4.69101 107.806 5.12202 107.973 5.49584Z" fill="#F5B97D"/>
<path d="M105.931 2.15122C105.971 1.56075 105.498 1.05144 104.875 1.01363C104.253 0.975826 103.716 1.42384 103.677 2.01431C103.638 2.60477 104.111 3.11408 104.733 3.15189C105.356 3.1897 105.892 2.74168 105.931 2.15122Z" fill="#F5B97D"/>
<path d="M129.414 17.1312C128.805 26.2846 120.488 33.2298 110.837 32.6437C106.549 32.3833 102.722 30.6783 99.8436 28.0635C102.809 31.8658 107.454 34.4512 112.817 34.7769C122.468 35.363 130.786 28.4178 131.395 19.2644C131.733 14.1741 129.623 9.48316 126.024 6.21518C128.391 9.25103 129.685 13.0634 129.414 17.1312Z" fill="#E3AA75"/>
<path d="M103.696 8.19867C103.282 9.07393 102.272 9.54812 101.286 9.33016L100.142 9.07712L100.205 9.33217C100.351 9.92921 100.842 10.3957 101.472 10.5349L102.432 10.7472C103.221 10.9217 104.03 10.5421 104.361 9.84134L104.989 8.51596C105.321 7.81307 105.069 7.0214 104.461 6.58304L103.696 8.19867Z" fill="#E3AA75"/>
<path d="M110.352 5.12832L108.865 5.62874C108.586 5.72275 108.296 5.71438 108.034 5.63122L108.271 6.16225C108.504 6.68481 109.126 6.94478 109.69 6.75507L111.002 6.31319C111.797 6.04564 112.012 5.07616 111.4 4.5258L111.151 4.30215C111.047 4.66485 110.775 4.98571 110.352 5.12832Z" fill="#E3AA75"/>
<path d="M108.917 24.2739C108.839 25.455 107.765 26.3511 106.52 26.2755C106.208 26.2566 105.915 26.1784 105.652 26.0534C105.944 26.8411 106.709 27.4277 107.643 27.4843C108.888 27.56 109.961 26.6638 110.04 25.4827C110.098 24.5974 109.582 23.8035 108.795 23.4294C108.892 23.6926 108.937 23.9782 108.917 24.2739Z" fill="#B67F5F"/>
<path d="M119.996 24.1751C119.937 25.0609 119.132 25.733 118.198 25.6763C117.96 25.6618 117.737 25.6001 117.536 25.5031C117.758 26.0879 118.328 26.5229 119.024 26.5651C119.958 26.6218 120.762 25.9497 120.821 25.0639C120.865 24.4043 120.482 23.8133 119.899 23.5305C119.975 23.7311 120.011 23.9488 119.996 24.1751Z" fill="#B67F5F"/>
<path d="M123.751 15.0426C123.83 13.8617 122.884 12.843 121.639 12.7674C120.394 12.6918 119.321 13.5878 119.242 14.7688C119.164 15.9497 120.11 16.9683 121.355 17.0439C122.6 17.1195 123.673 16.2235 123.751 15.0426Z" fill="#CD916E"/>
<path d="M122.63 13.834C122.551 15.0151 121.478 15.9112 120.232 15.8355C119.921 15.8166 119.628 15.7384 119.365 15.6134C119.656 16.4011 120.421 16.9877 121.355 17.0444C122.6 17.12 123.673 16.2238 123.752 15.0428C123.811 14.1575 123.294 13.3635 122.507 12.9895C122.605 13.2526 122.649 13.5382 122.63 13.834Z" fill="#B67F5F"/>
<path d="M112.192 18.6577C112.231 18.0672 111.758 17.5579 111.135 17.5201C110.513 17.4823 109.976 17.9303 109.937 18.5208C109.898 19.1112 110.371 19.6206 110.993 19.6584C111.616 19.6962 112.152 19.2481 112.192 18.6577Z" fill="#CD916E"/>
<path d="M105.003 25.1769C104.906 26.6319 106.075 27.8914 107.609 27.9846C109.143 28.0777 110.47 26.9697 110.567 25.5148C110.664 24.0597 109.494 22.8002 107.96 22.707C106.426 22.6138 105.099 23.7219 105.003 25.1769ZM109.512 25.4507C109.452 26.3541 108.628 27.042 107.676 26.9841C106.723 26.9263 105.997 26.1442 106.057 25.2409C106.118 24.3376 106.941 23.6496 107.894 23.7074C108.846 23.7653 109.572 24.5474 109.512 25.4507Z" fill="black"/>
<path d="M121.322 17.5446C122.856 17.6378 124.183 16.5298 124.279 15.0749C124.376 13.6199 123.207 12.3603 121.673 12.2672C120.139 12.174 118.812 13.282 118.715 14.7369C118.618 16.1919 119.787 17.4515 121.322 17.5446ZM119.77 14.8009C119.83 13.8975 120.654 13.2097 121.606 13.2675C122.559 13.3254 123.285 14.1074 123.224 15.0107C123.164 15.9141 122.341 16.602 121.388 16.5441C120.436 16.4863 119.71 15.7043 119.77 14.8009Z" fill="black"/>
<path d="M116.912 24.8265C116.834 25.9868 117.767 26.9911 118.99 27.0654C120.214 27.1397 121.272 26.2562 121.349 25.096C121.426 23.9358 120.494 22.9314 119.27 22.8571C118.047 22.7828 116.989 23.6663 116.912 24.8265ZM120.294 25.0319C120.253 25.6405 119.699 26.1039 119.057 26.0649C118.415 26.026 117.926 25.4992 117.966 24.8906C118.007 24.282 118.562 23.8186 119.204 23.8575C119.845 23.8965 120.334 24.4233 120.294 25.0319Z" fill="black"/>
<path d="M110.961 20.1362C111.874 20.1916 112.663 19.5326 112.721 18.6672C112.778 17.8018 112.083 17.0527 111.17 16.9972C110.258 16.9418 109.468 17.6009 109.411 18.4662C109.353 19.3316 110.049 20.0808 110.961 20.1362ZM110.466 18.5303C110.487 18.2165 110.773 17.9776 111.104 17.9977C111.434 18.0178 111.687 18.2894 111.666 18.6032C111.645 18.9169 111.359 19.1559 111.028 19.1358C110.697 19.1157 110.445 18.8441 110.466 18.5303Z" fill="black"/>
<path d="M120.161 8.9195C120.166 8.84434 120.153 8.76695 120.12 8.69282C120.006 8.4378 119.696 8.31839 119.427 8.42615L118.264 8.89231C117.995 9.00001 117.87 9.29406 117.984 9.54908C118.097 9.8041 118.408 9.92351 118.676 9.81575L119.839 9.34958C120.03 9.27311 120.149 9.10298 120.161 8.9195Z" fill="black"/>
<path d="M116.387 14.5952C116.392 14.52 116.38 14.4426 116.346 14.3685L115.854 13.265C115.74 13.01 115.43 12.8906 115.161 12.9983C114.892 13.1061 114.767 13.4 114.881 13.6551L115.373 14.7586C115.487 15.0136 115.797 15.133 116.066 15.0252C116.257 14.9488 116.375 14.7787 116.387 14.5952Z" fill="black"/>
<path d="M113.978 29.3919C114.169 29.3155 114.288 29.1454 114.3 28.9618C114.305 28.8867 114.292 28.8093 114.259 28.7351C114.145 28.4801 113.835 28.3607 113.566 28.4685L112.403 28.9346C112.134 29.0423 112.009 29.3364 112.123 29.5914C112.236 29.8464 112.547 29.9658 112.815 29.8581L113.978 29.3919Z" fill="black"/>
<path d="M123.402 21.6876L123.895 22.7911C124.009 23.0461 124.319 23.1655 124.588 23.0577C124.778 22.9813 124.897 22.8112 124.909 22.6277C124.914 22.5525 124.901 22.4751 124.868 22.401L124.375 21.2975C124.262 21.0425 123.952 20.9231 123.683 21.0308C123.414 21.1385 123.288 21.4326 123.402 21.6876Z" fill="black"/>
<path d="M102.118 19.8154L101.519 20.3158C101.3 20.4986 101.279 20.8153 101.472 21.0232C101.665 21.231 101.999 21.2513 102.218 21.0685L102.817 20.568C102.927 20.4766 102.987 20.3517 102.995 20.2237C103.004 20.0957 102.961 19.9645 102.864 19.8606C102.671 19.6528 102.337 19.6326 102.118 19.8154Z" fill="black"/>
<path d="M114.366 22.8798C114.559 23.0877 114.893 23.108 115.112 22.9251L115.711 22.4247C115.821 22.3333 115.881 22.2084 115.889 22.0804C115.898 21.9524 115.855 21.8213 115.758 21.7174C115.565 21.5095 115.231 21.4892 115.013 21.6721L114.413 22.1725C114.194 22.3552 114.173 22.672 114.366 22.8798Z" fill="black"/>
<path d="M126.994 17.3522L127.558 17.3865C127.849 17.4042 128.1 17.1945 128.119 16.9183C128.137 16.642 127.916 16.4037 127.624 16.386L127.061 16.3518C126.769 16.3341 126.518 16.5437 126.5 16.82C126.482 17.0962 126.703 17.3345 126.994 17.3522Z" fill="black"/>
<path d="M106.353 18.4622L105.825 17.8933C105.632 17.6855 105.298 17.6652 105.079 17.848C104.86 18.0309 104.839 18.3476 105.032 18.5554L105.56 19.1243C105.753 19.3321 106.087 19.3524 106.306 19.1696C106.416 19.0782 106.476 18.9532 106.484 18.8253C106.493 18.6973 106.45 18.5661 106.353 18.4622Z" fill="black"/>
<path d="M104.843 10.0469L105.471 8.72151C105.581 8.48873 105.644 8.24133 105.661 7.99163C105.683 7.65421 105.62 7.31262 105.472 6.99764C105.213 6.44951 104.719 6.03045 104.116 5.84798L102.107 5.23999C101.335 5.00651 100.52 5.17783 99.925 5.69825C99.3301 6.21874 99.0845 6.97606 99.2679 7.72421L99.6897 9.44525C99.8802 10.2226 100.533 10.8419 101.352 11.023L102.312 11.2354C103.345 11.4636 104.409 10.9638 104.843 10.0469ZM102.551 10.259L101.591 10.0467C101.161 9.95168 100.819 9.6268 100.719 9.21908L100.297 7.49805C100.271 7.38902 100.261 7.27963 100.268 7.17265C100.287 6.89453 100.417 6.63254 100.642 6.43536C100.954 6.1624 101.382 6.07253 101.787 6.19494L103.796 6.80292C104.117 6.9001 104.369 7.11425 104.507 7.40599C104.644 7.69774 104.644 8.01882 104.506 8.31025L103.879 9.63563C103.651 10.1166 103.093 10.3788 102.551 10.259Z" fill="black"/>
<path d="M107.784 6.35726C108.126 7.12327 109.041 7.50548 109.867 7.22745L111.179 6.78557C111.727 6.60113 112.126 6.16897 112.246 5.62949C112.263 5.55285 112.274 5.47604 112.279 5.39954C112.31 4.93761 112.125 4.48759 111.763 4.16203L110.761 3.26213C110.428 2.96263 109.992 2.81019 109.533 2.83298C109.075 2.85578 108.658 3.05052 108.36 3.38145L107.752 4.05682C107.342 4.51244 107.24 5.13861 107.487 5.69098L107.784 6.35726ZM108.46 5.30074C108.422 5.21697 108.407 5.12852 108.413 5.04182C108.421 4.92137 108.47 4.80439 108.556 4.70832L109.164 4.03295C109.272 3.91295 109.423 3.8423 109.59 3.83411C109.756 3.82592 109.914 3.88113 110.035 3.98972L111.037 4.88962C111.192 5.02924 111.256 5.22323 111.212 5.42171C111.167 5.62026 111.026 5.77301 110.825 5.84086L109.512 6.28275C109.213 6.38356 108.881 6.24495 108.757 5.96722L108.46 5.30074C108.46 5.30081 108.46 5.30081 108.46 5.30074Z" fill="black"/>
<path d="M106.459 2.18313C106.517 1.31769 105.821 0.568565 104.909 0.513156C103.996 0.457747 103.207 1.11678 103.15 1.98215C103.092 2.84753 103.788 3.59672 104.7 3.65213C105.612 3.70754 106.402 3.04858 106.459 2.18313ZM104.204 2.04621C104.225 1.73241 104.511 1.49351 104.842 1.5136C105.173 1.53368 105.425 1.80534 105.404 2.11908C105.384 2.43282 105.097 2.67178 104.767 2.65169C104.436 2.6316 104.184 2.36001 104.204 2.04621Z" fill="black"/>
<path d="M116.635 2.64624C116.656 2.87675 116.658 3.10947 116.643 3.33797C116.502 5.45035 114.955 7.21704 112.791 7.73441C112.2 7.87589 111.741 8.3023 111.593 8.84722C110.581 12.5897 106.891 15.1267 102.821 14.8795C101.14 14.7774 99.545 14.2118 98.2082 13.2437C97.915 13.0313 97.5332 12.9716 97.1868 13.084C96.8398 13.1966 96.5762 13.4662 96.4817 13.8051C96.0131 15.4853 95.817 17.2266 95.899 18.9803C96.0629 22.4899 97.3626 25.8306 99.6579 28.6415C99.8366 28.8604 100.169 28.9006 100.399 28.7312C100.63 28.5619 100.672 28.247 100.493 28.0281C98.3325 25.382 97.109 22.2383 96.955 18.937C96.8778 17.2844 97.0625 15.6444 97.5036 14.0623C97.5069 14.0508 97.5125 14.0382 97.5298 14.0326C97.5462 14.0273 97.5576 14.0331 97.5674 14.0403C99.0708 15.129 100.865 15.7651 102.754 15.8799C107.331 16.1578 111.479 13.3053 112.617 9.09729C112.668 8.90795 112.834 8.75818 113.05 8.70649C115.661 8.08231 117.528 5.95059 117.698 3.40203C117.716 3.12504 117.713 2.8432 117.689 2.56428C117.685 2.52705 117.71 2.50964 117.716 2.50919C120.81 3.18127 123.642 4.66861 125.904 6.81041C126.111 7.00604 126.446 7.00587 126.652 6.80999C126.746 6.72036 126.797 6.6052 126.805 6.48795C126.814 6.34903 126.763 6.20722 126.651 6.1011C124.247 3.82613 121.239 2.24616 117.951 1.53199C117.616 1.45938 117.276 1.54021 117.016 1.75391C116.748 1.97398 116.606 2.30754 116.635 2.64624Z" fill="black"/>
<path d="M127.354 8.37109C129.879 11.4693 131.127 15.3266 130.867 19.2325C130.718 21.4839 130.092 23.6322 129.007 25.6176C127.959 27.5359 126.536 29.2116 124.776 30.5981C123.019 31.9825 121.025 33.0009 118.85 33.6251C116.587 34.2741 114.234 34.4638 111.853 34.1889C108.143 33.7603 104.624 32.1266 101.944 29.5888C101.737 29.3931 101.402 29.3932 101.196 29.589C100.99 29.7847 100.99 30.1022 101.197 30.2978C104.043 32.9932 107.783 34.7285 111.726 35.184C114.253 35.4758 116.753 35.2742 119.157 34.5846C121.468 33.9214 123.586 32.8397 125.452 31.3694C127.321 29.8969 128.832 28.117 129.946 26.0794C131.098 23.9697 131.763 21.6876 131.922 19.2965C132.198 15.1473 130.873 11.0496 128.19 7.75836C128.011 7.53925 127.679 7.4988 127.448 7.668C127.218 7.83714 127.175 8.15198 127.354 8.37109Z" fill="black"/>
</g>
<path d="M87.8873 23.4229C87.899 33.4674 79.3316 41.6011 68.7515 41.59C58.1713 41.5789 47.6861 29.8669 47.6744 19.8224C56.7231 16.8666 65.3543 16.8756 68.709 5.21564C79.2891 5.22673 87.8756 13.3784 87.8873 23.4229Z" fill="#1CB43E"/>
<g clip-path="url(#clip2)">
<path d="M68.6002 4.20567C68.6221 4.45652 68.6256 4.71174 68.6084 4.97045C68.45 7.35181 66.6735 9.2674 64.3589 9.82086C63.9632 9.9155 63.6447 10.1978 63.5432 10.5726C62.4863 14.4791 58.6266 17.2473 54.2257 16.9801C52.3774 16.8678 50.6957 16.2344 49.326 15.2424C49.0003 15.0065 48.5355 15.1586 48.4308 15.5341C48.1433 16.565 47.9562 17.6372 47.8827 18.7421C47.2738 27.8955 54.6041 35.7909 64.2554 36.377C73.9065 36.9631 82.224 30.0179 82.8329 20.8645C83.3816 12.615 77.5039 5.40918 69.2712 3.62103C68.8976 3.53982 68.5685 3.84348 68.6002 4.20567Z" fill="#FA5B5B"/>
<path d="M61.4774 27.0826C61.556 25.9017 60.6103 24.883 59.3651 24.8074C58.12 24.7318 57.0469 25.6279 56.9683 26.8088C56.8898 27.9897 57.8355 29.0083 59.0807 29.0839C60.3258 29.1596 61.3989 28.2635 61.4774 27.0826Z" fill="#CD916E"/>
<path d="M72.2593 26.664C72.3182 25.7781 71.6088 25.014 70.6747 24.9573C69.7407 24.9005 68.9357 25.5727 68.8768 26.4586C68.8178 27.3444 69.5273 28.1086 70.4613 28.1653C71.3954 28.222 72.2004 27.5499 72.2593 26.664Z" fill="#CD916E"/>
<path d="M52.9097 12.1348L53.8699 12.3472C54.6591 12.5216 55.4675 12.142 55.7992 11.4413L56.4264 10.1159C56.8407 9.24046 56.3586 8.21728 55.3941 7.92548L53.3848 7.31749C52.1325 6.93857 50.923 7.99682 51.2206 9.21116L51.6425 10.9323C51.7889 11.5292 52.2803 11.9956 52.9097 12.1348Z" fill="#F5B97D"/>
<path d="M59.4112 7.09585L59.7087 7.7622C59.9419 8.28483 60.5641 8.54473 61.1276 8.35502L62.4401 7.91314C63.2348 7.64559 63.4505 6.67612 62.8378 6.12576L61.836 5.22586C61.3663 4.80392 60.6201 4.84097 60.2003 5.30714L59.5921 5.9825C59.3143 6.29101 59.2443 6.72203 59.4112 7.09585Z" fill="#F5B97D"/>
<path d="M57.3695 3.75122C57.4088 3.16076 56.9359 2.65145 56.3133 2.61364C55.6908 2.57583 55.1542 3.02385 55.1149 3.61431C55.0757 4.20478 55.5485 4.71409 56.1711 4.7519C56.7937 4.7897 57.3302 4.34169 57.3695 3.75122Z" fill="#F5B97D"/>
<path d="M80.8523 18.7312C80.2434 27.8846 71.926 34.8298 62.2748 34.2437C57.9873 33.9833 54.1604 32.2783 51.2815 29.6635C54.2472 33.4658 58.8915 36.0512 64.2553 36.3769C73.9065 36.963 82.224 30.0178 82.8328 20.8644C83.1714 15.7741 81.0609 11.0832 77.4623 7.81519C79.8287 10.851 81.1228 14.6634 80.8523 18.7312Z" fill="#E3AA75"/>
<path d="M55.134 9.79868C54.7197 10.6739 53.7099 11.1481 52.7242 10.9302L51.58 10.6771L51.6425 10.9322C51.7889 11.5292 52.2804 11.9957 52.9098 12.1349L53.87 12.3472C54.6591 12.5217 55.4676 12.1421 55.7993 11.4413L56.4265 10.116C56.7591 9.41308 56.5074 8.62141 55.8986 8.18305L55.134 9.79868Z" fill="#E3AA75"/>
<path d="M61.7896 6.72833L60.3031 7.22875C60.0238 7.32275 59.7338 7.31438 59.4716 7.23123L59.7086 7.76225C59.9418 8.28481 60.564 8.54479 61.1275 8.35508L62.4401 7.91319C63.2347 7.64565 63.4505 6.67617 62.8377 6.12581L62.5887 5.90216C62.4853 6.26485 62.2135 6.58572 61.7896 6.72833Z" fill="#E3AA75"/>
<path d="M60.3553 25.8739C60.2767 27.055 59.2035 27.9511 57.9582 27.8755C57.6463 27.8566 57.3533 27.7784 57.0904 27.6534C57.3821 28.4411 58.1471 29.0277 59.0805 29.0843C60.3258 29.16 61.399 28.2638 61.4776 27.0828C61.5365 26.1974 61.0197 25.4035 60.2328 25.0294C60.3303 25.2926 60.375 25.5782 60.3553 25.8739Z" fill="#B67F5F"/>
<path d="M71.4341 25.7751C71.3752 26.6609 70.5702 27.333 69.6363 27.2763C69.3977 27.2618 69.1746 27.2001 68.9744 27.1031C69.1963 27.6879 69.7661 28.1229 70.4615 28.1651C71.3955 28.2218 72.2004 27.5497 72.2593 26.6639C72.3032 26.0043 71.9203 25.4133 71.3367 25.1305C71.4128 25.3311 71.4491 25.5488 71.4341 25.7751Z" fill="#B67F5F"/>
<path d="M75.1895 16.6426C75.268 15.4617 74.3223 14.443 73.0772 14.3674C71.832 14.2918 70.7589 15.1878 70.6804 16.3688C70.6018 17.5497 71.5475 18.5683 72.7927 18.6439C74.0378 18.7195 75.1109 17.8235 75.1895 16.6426Z" fill="#CD916E"/>
<path d="M74.0676 15.434C73.989 16.6151 72.9158 17.5112 71.6705 17.4356C71.3586 17.4166 71.0656 17.3384 70.8027 17.2134C71.0943 18.0011 71.8594 18.5877 72.7928 18.6444C74.0381 18.72 75.1113 17.8238 75.1899 16.6428C75.2488 15.7575 74.732 14.9635 73.9451 14.5895C74.0425 14.8526 74.0872 15.1382 74.0676 15.434Z" fill="#B67F5F"/>
<path d="M63.6295 20.2577C63.6688 19.6672 63.1959 19.1579 62.5733 19.1201C61.9508 19.0823 61.4142 19.5303 61.3749 20.1208C61.3357 20.7112 61.8085 21.2206 62.4311 21.2584C63.0537 21.2962 63.5902 20.8482 63.6295 20.2577Z" fill="#CD916E"/>
<path d="M56.4405 26.7769C56.3438 28.2319 57.5132 29.4914 59.0473 29.5846C60.5814 29.6777 61.9083 28.5697 62.005 27.1148C62.1018 25.6597 60.9324 24.4002 59.3983 24.307C57.8642 24.2139 56.5373 25.3219 56.4405 26.7769ZM60.9503 27.0507C60.8902 27.9541 60.0663 28.642 59.1139 28.5841C58.1614 28.5263 57.4354 27.7442 57.4954 26.8409C57.5555 25.9376 58.3794 25.2496 59.3318 25.3075C60.2843 25.3653 61.0104 26.1474 60.9503 27.0507Z" fill="black"/>
<path d="M72.7596 19.1446C74.2938 19.2378 75.6206 18.1298 75.7174 16.6749C75.8142 15.2199 74.6447 13.9603 73.1106 13.8672C71.5766 13.774 70.2497 14.882 70.1529 16.337C70.0561 17.7919 71.2254 19.0515 72.7596 19.1446ZM71.2077 16.4009C71.2677 15.4976 72.0916 14.8097 73.044 14.8675C73.9965 14.9254 74.7226 15.7074 74.6625 16.6107C74.6024 17.5141 73.7785 18.202 72.8261 18.1441C71.8736 18.0863 71.1476 17.3043 71.2077 16.4009Z" fill="black"/>
<path d="M68.3496 26.4265C68.2724 27.5868 69.2049 28.5911 70.4283 28.6654C71.6516 28.7397 72.7096 27.8562 72.7868 26.696C72.864 25.5358 71.9315 24.5314 70.7082 24.4571C69.4849 24.3828 68.4268 25.2663 68.3496 26.4265ZM71.7319 26.6319C71.6915 27.2405 71.1365 27.7039 70.4948 27.665C69.8531 27.626 69.364 27.0992 69.4045 26.4906C69.4449 25.882 70 25.4186 70.6416 25.4575C71.2833 25.4965 71.7724 26.0233 71.7319 26.6319Z" fill="black"/>
<path d="M62.3993 21.7362C63.3118 21.7916 64.101 21.1326 64.1585 20.2672C64.2161 19.4018 63.5205 18.6527 62.6081 18.5972C61.6956 18.5418 60.9064 19.2009 60.8488 20.0662C60.7913 20.9316 61.4868 21.6808 62.3993 21.7362ZM61.9037 20.1303C61.9246 19.8165 62.2107 19.5776 62.5415 19.5977C62.8723 19.6178 63.1245 19.8894 63.1037 20.2032C63.0828 20.5169 62.7966 20.7559 62.4658 20.7358C62.135 20.7157 61.8828 20.4441 61.9037 20.1303Z" fill="black"/>
<path d="M71.5989 10.5195C71.6039 10.4443 71.591 10.367 71.558 10.2928C71.4441 10.0378 71.134 9.9184 70.8652 10.0262L69.7022 10.4923C69.4334 10.6 69.3077 10.8941 69.4217 11.1491C69.5355 11.4041 69.8456 11.5235 70.1144 11.4158L71.2774 10.9496C71.4681 10.8731 71.5867 10.703 71.5989 10.5195Z" fill="black"/>
<path d="M67.8254 16.1952C67.8304 16.12 67.8175 16.0426 67.7844 15.9685L67.2919 14.865C67.1781 14.61 66.8679 14.4906 66.5992 14.5983C66.3304 14.7061 66.2047 15 66.3187 15.2551L66.8112 16.3586C66.925 16.6136 67.2352 16.733 67.5039 16.6252C67.6946 16.5488 67.8132 16.3787 67.8254 16.1952Z" fill="black"/>
<path d="M65.4163 30.9919C65.607 30.9155 65.7255 30.7454 65.7377 30.5618C65.7427 30.4867 65.7299 30.4093 65.6968 30.3351C65.583 30.0801 65.2729 29.9607 65.0041 30.0685L63.8411 30.5346C63.5724 30.6423 63.4467 30.9364 63.5606 31.1914C63.6744 31.4464 63.9846 31.5658 64.2533 31.4581L65.4163 30.9919Z" fill="black"/>
<path d="M74.8402 23.2876L75.3328 24.3911C75.4466 24.6461 75.7567 24.7655 76.0255 24.6577C76.2161 24.5813 76.3347 24.4112 76.3469 24.2277C76.3519 24.1525 76.3391 24.0751 76.306 24.001L75.8134 22.8975C75.6996 22.6425 75.3895 22.5231 75.1207 22.6308C74.852 22.7385 74.7264 23.0326 74.8402 23.2876Z" fill="black"/>
<path d="M53.5564 21.4154L52.9571 21.9158C52.7381 22.0986 52.717 22.4153 52.91 22.6232C53.103 22.831 53.4369 22.8513 53.6559 22.6685L54.2552 22.168C54.3647 22.0766 54.4247 21.9517 54.4332 21.8237C54.4417 21.6957 54.3988 21.5645 54.3023 21.4606C54.1093 21.2529 53.7754 21.2326 53.5564 21.4154Z" fill="black"/>
<path d="M65.8042 24.4798C65.9972 24.6877 66.3312 24.708 66.5501 24.5251L67.1494 24.0247C67.2588 23.9333 67.3189 23.8084 67.3274 23.6804C67.3359 23.5524 67.2929 23.4213 67.1964 23.3174C67.0034 23.1095 66.6695 23.0892 66.4506 23.2721L65.8513 23.7725C65.6323 23.9552 65.6113 24.272 65.8042 24.4798Z" fill="black"/>
<path d="M78.4321 18.9522L78.9959 18.9865C79.2871 19.0042 79.5382 18.7945 79.5565 18.5183C79.5749 18.242 79.3537 18.0037 79.0624 17.986L78.4987 17.9518C78.2074 17.9341 77.9564 18.1437 77.938 18.42C77.9196 18.6962 78.1409 18.9346 78.4321 18.9522Z" fill="black"/>
<path d="M57.7913 20.0622L57.2631 19.4933C57.0702 19.2855 56.7362 19.2652 56.5173 19.448C56.2983 19.6309 56.2773 19.9476 56.4702 20.1554L56.9984 20.7243C57.1914 20.9321 57.5253 20.9524 57.7442 20.7696C57.8537 20.6782 57.9137 20.5533 57.9223 20.4253C57.9308 20.2973 57.8877 20.1661 57.7913 20.0622Z" fill="black"/>
<path d="M56.2813 11.6469L56.9086 10.3215C57.0187 10.0887 57.0822 9.84134 57.0988 9.59163C57.1212 9.25422 57.0582 8.91262 56.9097 8.59764C56.6514 8.04952 56.1573 7.63045 55.5543 7.44798L53.545 6.84C52.7735 6.60652 51.9578 6.77784 51.363 7.29826C50.7681 7.81875 50.5225 8.57607 50.7059 9.32422L51.1277 11.0453C51.3182 11.8226 51.9707 12.4419 52.7901 12.623L53.7503 12.8354C54.7829 13.0636 55.8473 12.5638 56.2813 11.6469ZM53.9894 11.859L53.0293 11.6467C52.5994 11.5517 52.2571 11.2268 52.1572 10.8191L51.7354 9.09805C51.7087 8.98902 51.6994 8.87964 51.7065 8.77266C51.725 8.49454 51.8547 8.23255 52.0801 8.03536C52.3921 7.76241 52.8199 7.67254 53.2246 7.79495L55.2339 8.40293C55.5549 8.5001 55.8074 8.71426 55.9449 9.006C56.0824 9.29774 56.0822 9.61883 55.9443 9.91026L55.317 11.2356C55.0894 11.7166 54.5311 11.9788 53.9894 11.859Z" fill="black"/>
<path d="M59.222 7.95727C59.5639 8.72328 60.4787 9.10549 61.3048 8.82746L62.6173 8.38557C63.165 8.20113 63.5638 7.76898 63.6838 7.2295C63.7008 7.15286 63.7118 7.07604 63.7169 6.99954C63.7476 6.53761 63.5633 6.08759 63.201 5.76204L62.1992 4.86213C61.8657 4.56264 61.4296 4.4102 60.9713 4.43299C60.5129 4.45578 60.0963 4.65053 59.7984 4.98146L59.1902 5.65683C58.7798 6.11245 58.678 6.73862 58.9246 7.29098L59.222 7.95727ZM59.8978 6.90075C59.8604 6.81698 59.8451 6.72853 59.8508 6.64182C59.8588 6.52137 59.9076 6.4044 59.994 6.30833L60.6023 5.63296C60.7103 5.51296 60.8614 5.44231 61.0275 5.43412C61.1937 5.42593 61.3519 5.48114 61.4727 5.58973L62.4745 6.48963C62.63 6.62925 62.6937 6.82324 62.6495 7.02171C62.6054 7.22026 62.4644 7.37302 62.2628 7.44087L60.9503 7.88275C60.6508 7.98356 60.3191 7.84496 60.1951 7.56723L59.8978 6.90075C59.8978 6.90081 59.8978 6.90081 59.8978 6.90075Z" fill="black"/>
<path d="M57.8972 3.78314C57.9547 2.91769 57.2592 2.16857 56.3467 2.11316C55.4343 2.05775 54.6451 2.71678 54.5876 3.58216C54.53 4.44754 55.2256 5.19672 56.138 5.25213C57.0504 5.30754 57.8396 4.64858 57.8972 3.78314ZM55.6424 3.64622C55.6633 3.33241 55.9494 3.09351 56.2802 3.1136C56.611 3.13369 56.8633 3.40535 56.8424 3.71909C56.8215 4.03282 56.5353 4.27179 56.2045 4.2517C55.8737 4.23161 55.6215 3.96002 55.6424 3.64622Z" fill="black"/>
<path d="M68.0735 4.24625C68.0936 4.47676 68.0961 4.70948 68.0809 4.93798C67.9404 7.05035 66.3925 8.81704 64.229 9.33442C63.6376 9.47589 63.1786 9.90231 63.0312 10.4472C62.0186 14.1897 58.3293 16.7267 54.2589 16.4795C52.578 16.3774 50.9829 15.8118 49.6462 14.8437C49.353 14.6313 48.9712 14.5716 48.6248 14.684C48.2777 14.7966 48.0142 15.0662 47.9197 15.4051C47.4511 17.0853 47.255 18.8266 47.337 20.5803C47.5009 24.0899 48.8006 27.4306 51.0959 30.2415C51.2746 30.4605 51.6066 30.5006 51.8373 30.3312C52.0679 30.1619 52.11 29.847 51.9312 29.6281C49.7705 26.982 48.547 23.8383 48.393 20.537C48.3158 18.8844 48.5004 17.2444 48.9416 15.6623C48.9449 15.6508 48.9505 15.6382 48.9678 15.6326C48.9842 15.6273 48.9956 15.6331 49.0054 15.6403C50.5088 16.729 52.3025 17.3651 54.1924 17.4799C58.7687 17.7578 62.9165 14.9053 64.055 10.6973C64.1062 10.508 64.2723 10.3582 64.4884 10.3065C67.0986 9.68231 68.9662 7.5506 69.1357 5.00203C69.1542 4.72505 69.1511 4.4432 69.1267 4.16429C69.1234 4.12706 69.1476 4.10965 69.1535 4.1092C72.248 4.78127 75.0796 6.26861 77.3424 8.41042C77.5491 8.60605 77.8837 8.60588 78.0898 8.41C78.1841 8.32037 78.2351 8.20521 78.2429 8.08796C78.2522 7.94903 78.2008 7.80722 78.0887 7.70111C75.6852 5.42614 72.6768 3.84616 69.3886 3.13199C69.0543 3.05939 68.7135 3.14022 68.4536 3.35392C68.1859 3.57398 68.0438 3.90755 68.0735 4.24625Z" fill="black"/>
<path d="M78.7919 9.97109C81.3175 13.0693 82.5652 16.9266 82.3053 20.8325C82.1556 23.0839 81.5297 25.2322 80.445 27.2176C79.3972 29.1359 77.9735 30.8116 76.2138 32.1981C74.4569 33.5825 72.463 34.6009 70.2876 35.2251C68.0254 35.8741 65.6715 36.0638 63.2912 35.7889C59.5808 35.3603 56.0615 33.7266 53.3816 31.1888C53.1749 30.9931 52.8403 30.9932 52.6342 31.189C52.4281 31.3847 52.4285 31.7022 52.6352 31.8978C55.4814 34.5932 59.2207 36.3285 63.1644 36.784C65.6913 37.0758 68.1911 36.8742 70.5946 36.1846C72.9057 35.5214 75.0237 34.4397 76.8896 32.9694C78.7585 31.4969 80.2705 29.717 81.3836 27.6794C82.5361 25.5697 83.2011 23.2876 83.3601 20.8965C83.6361 16.7473 82.3106 12.6496 79.6278 9.35836C79.4492 9.13926 79.1172 9.09881 78.8864 9.26801C78.6556 9.43714 78.6133 9.75199 78.7919 9.97109Z" fill="black"/>
</g>
<defs>
<clipPath id="clip0">
<rect width="34.2238" height="36.0718" fill="white" transform="matrix(0.0663702 -0.997788 0.998155 0.0606143 1.00647 35.7842)"/>
</clipPath>
<clipPath id="clip1">
<rect width="34.2235" height="36.0716" fill="white" transform="matrix(0.0663706 -0.997795 0.998161 0.0606147 94.7814 34.1842)"/>
</clipPath>
<clipPath id="clip2">
<rect width="34.2235" height="36.0716" fill="white" transform="matrix(0.0663706 -0.997795 0.998161 0.0606147 46.2194 35.7842)"/>
</clipPath>
</defs>
</svg>
